<svg width="36" height="43" viewBox="0 0 36 43" fill="none" xmlns="http://www.w3.org/2000/svg">
<g style="mix-blend-mode:color-burn" opacity="0.5" filter="url(#filter0_f_442_1435)">
<path fill-rule="evenodd" clip-rule="evenodd" d="M16.6997 33.03C16.3625 33.7051 15.679 34.167 14.8907 34.167C13.7681 34.167 12.858 33.2303 12.858 32.0748C12.858 31.9091 12.876 31.7416 12.9102 31.5715C12.7466 31.9737 12.6547 32.3575 12.6547 32.732C12.6547 33.8875 13.5648 34.8242 14.6874 34.8242C15.7118 34.8242 16.5592 34.0443 16.6997 33.03Z" fill="url(#paint0_radial_442_1435)" fill-opacity="0.3"/>
</g>
<path opacity="0.5" d="M16.6998 32.7217C16.6998 33.8772 15.7898 34.8139 14.6671 34.8139C13.5445 34.8139 12.6344 33.8772 12.6344 32.7217C12.6344 31.5662 13.5085 30.3228 14.6671 28.7235C15.6428 30.279 16.6998 31.5662 16.6998 32.7217Z" fill="url(#paint1_radial_442_1435)"/>
<g style="mix-blend-mode:screen" opacity="0.3">
<ellipse cx="15.1855" cy="31.0019" rx="2.08354" ry="2.19078" fill="url(#paint2_radial_442_1435)"/>
</g>
<g style="mix-blend-mode:screen" opacity="0.3">
<ellipse cx="14.0065" cy="33.39" rx="2.08354" ry="2.19078" fill="url(#paint3_radial_442_1435)"/>
</g>
<g style="mix-blend-mode:color-burn" opacity="0.5" filter="url(#filter1_f_442_1435)">
<path fill-rule="evenodd" clip-rule="evenodd" d="M20.2356 27.5955C19.9345 28.1592 19.3242 28.5449 18.6204 28.5449C17.618 28.5449 16.8055 27.7628 16.8055 26.798C16.8055 26.6597 16.8215 26.5198 16.852 26.3778C16.706 26.7136 16.624 27.034 16.624 27.3468C16.624 28.3115 17.4365 29.0936 18.4389 29.0936C19.3535 29.0936 20.1101 28.4425 20.2356 27.5955Z" fill="url(#paint4_radial_442_1435)" fill-opacity="0.3"/>
</g>
<path opacity="0.5" d="M20.2356 27.3382C20.2356 28.303 19.4231 29.0851 18.4207 29.0851C17.4183 29.0851 16.6058 28.303 16.6058 27.3382C16.6058 26.3734 17.3862 25.3352 18.4207 23.9999C19.2919 25.2986 20.2356 26.3734 20.2356 27.3382Z" fill="url(#paint5_radial_442_1435)"/>
<g style="mix-blend-mode:screen" opacity="0.3">
<ellipse cx="18.8835" cy="25.9022" rx="1.8603" ry="1.8292" fill="url(#paint6_radial_442_1435)"/>
</g>
<g style="mix-blend-mode:screen" opacity="0.3">
<ellipse cx="17.8308" cy="27.8961" rx="1.8603" ry="1.8292" fill="url(#paint7_radial_442_1435)"/>
</g>
<g style="mix-blend-mode:color-burn" opacity="0.5" filter="url(#filter2_f_442_1435)">
<path fill-rule="evenodd" clip-rule="evenodd" d="M24.337 33.03C23.9998 33.7051 23.3163 34.167 22.528 34.167C21.4053 34.167 20.4953 33.2303 20.4953 32.0748C20.4953 31.9091 20.5132 31.7416 20.5474 31.5715C20.3838 31.9737 20.292 32.3575 20.292 32.732C20.292 33.8875 21.2021 34.8242 22.3247 34.8242C23.3491 34.8242 24.1965 34.0443 24.337 33.03Z" fill="url(#paint8_radial_442_1435)" fill-opacity="0.3"/>
</g>
<path opacity="0.5" d="M24.3371 32.7217C24.3371 33.8772 23.427 34.8139 22.3044 34.8139C21.1817 34.8139 20.2717 33.8772 20.2717 32.7217C20.2717 31.5662 21.1457 30.3228 22.3044 28.7235C23.2801 30.279 24.3371 31.5662 24.3371 32.7217Z" fill="url(#paint9_radial_442_1435)"/>
<g style="mix-blend-mode:screen" opacity="0.3">
<ellipse cx="22.8227" cy="31.0019" rx="2.08354" ry="2.19078" fill="url(#paint10_radial_442_1435)"/>
</g>
<g style="mix-blend-mode:screen" opacity="0.3">
<ellipse cx="21.6438" cy="33.39" rx="2.08354" ry="2.19078" fill="url(#paint11_radial_442_1435)"/>
</g>
<g style="mix-blend-mode:color-burn" opacity="0.5" filter="url(#filter3_f_442_1435)">
<path fill-rule="evenodd" clip-rule="evenodd" d="M12.7512 27.5658C12.4501 28.1296 11.8399 28.5152 11.136 28.5152C10.1337 28.5152 9.32108 27.7331 9.32108 26.7683C9.32108 26.63 9.33712 26.4902 9.36766 26.3481C9.22159 26.6839 9.13959 27.0044 9.13959 27.3171C9.13959 28.2819 9.95216 29.064 10.9545 29.064C11.8691 29.064 12.6257 28.4128 12.7512 27.5658Z" fill="url(#paint12_radial_442_1435)" fill-opacity="0.3"/>
</g>
<path opacity="0.5" d="M12.7513 27.3085C12.7513 28.2733 11.9387 29.0554 10.9363 29.0554C9.93397 29.0554 9.1214 28.2733 9.1214 27.3085C9.1214 26.3437 9.90182 25.3055 10.9363 23.9702C11.8075 25.2689 12.7513 26.3437 12.7513 27.3085Z" fill="url(#paint13_radial_442_1435)"/>
<g style="mix-blend-mode:screen" opacity="0.3">
<ellipse cx="11.3991" cy="25.8727" rx="1.8603" ry="1.8292" fill="url(#paint14_radial_442_1435)"/>
</g>
<g style="mix-blend-mode:screen" opacity="0.3">
<ellipse cx="10.3465" cy="27.8664" rx="1.8603" ry="1.8292" fill="url(#paint15_radial_442_1435)"/>
</g>
<g style="mix-blend-mode:color-burn" opacity="0.5" filter="url(#filter4_f_442_1435)">
<path fill-rule="evenodd" clip-rule="evenodd" d="M27.6438 27.5955C27.3428 28.1592 26.7325 28.5449 26.0286 28.5449C25.0263 28.5449 24.2137 27.7628 24.2137 26.798C24.2137 26.6597 24.2298 26.5198 24.2603 26.3778C24.1142 26.7136 24.0322 27.034 24.0322 27.3468C24.0322 28.3115 24.8448 29.0936 25.8472 29.0936C26.7618 29.0936 27.5184 28.4425 27.6438 27.5955Z" fill="url(#paint16_radial_442_1435)" fill-opacity="0.3"/>
</g>
<path opacity="0.5" d="M27.644 27.3382C27.644 28.303 26.8314 29.0851 25.829 29.0851C24.8267 29.0851 24.0141 28.303 24.0141 27.3382C24.0141 26.3734 24.7945 25.3352 25.829 23.9999C26.7002 25.2986 27.644 26.3734 27.644 27.3382Z" fill="url(#paint17_radial_442_1435)"/>
<g style="mix-blend-mode:screen" opacity="0.3">
<ellipse cx="26.2918" cy="25.9022" rx="1.8603" ry="1.8292" fill="url(#paint18_radial_442_1435)"/>
</g>
<g style="mix-blend-mode:screen" opacity="0.3">
<ellipse cx="25.2391" cy="27.8961" rx="1.8603" ry="1.8292" fill="url(#paint19_radial_442_1435)"/>
</g>
<g filter="url(#filter5_di_442_1435)">
<ellipse cx="24.8698" cy="6.67964" rx="6.68258" ry="6.67964" fill="url(#paint20_linear_442_1435)"/>
</g>
<g filter="url(#filter6_di_442_1435)">
<path fill-rule="evenodd" clip-rule="evenodd" d="M25.3628 23.2382H12.4558L12.4558 23.2381C6.12896 23.2381 1 18.1214 1 11.8095C1 5.49773 6.12896 0.380981 12.4558 0.380981C17.5433 0.380981 21.8563 3.68941 23.3508 8.26729C23.9918 8.0931 24.6664 8.00012 25.3628 8.00012C29.5807 8.00012 33 11.4113 33 15.6192C33 19.8271 29.5807 23.2382 25.3628 23.2382Z" fill="url(#paint21_linear_442_1435)"/>
</g>
<defs>
<filter id="filter0_f_442_1435" x="4.65472" y="23.5715" width="20.045" height="19.2527" filterUnits="userSpaceOnUse" color-interpolation-filters="sRGB">
<feFlood flood-opacity="0" result="BackgroundImageFix"/>
<feBlend mode="normal" in="SourceGraphic" in2="BackgroundImageFix" result="shape"/>
<feGaussianBlur stdDeviation="4" result="effect1_foregroundBlur_442_1435"/>
</filter>
<filter id="filter1_f_442_1435" x="8.62396" y="18.3778" width="19.6116" height="18.7158" filterUnits="userSpaceOnUse" color-interpolation-filters="sRGB">
<feFlood flood-opacity="0" result="BackgroundImageFix"/>
<feBlend mode="normal" in="SourceGraphic" in2="BackgroundImageFix" result="shape"/>
<feGaussianBlur stdDeviation="4" result="effect1_foregroundBlur_442_1435"/>
</filter>
<filter id="filter2_f_442_1435" x="12.292" y="23.5715" width="20.045" height="19.2527" filterUnits="userSpaceOnUse" color-interpolation-filters="sRGB">
<feFlood flood-opacity="0" result="BackgroundImageFix"/>
<feBlend mode="normal" in="SourceGraphic" in2="BackgroundImageFix" result="shape"/>
<feGaussianBlur stdDeviation="4" result="effect1_foregroundBlur_442_1435"/>
</filter>
<filter id="filter3_f_442_1435" x="1.13959" y="18.3481" width="19.6116" height="18.7158" filterUnits="userSpaceOnUse" color-interpolation-filters="sRGB">
<feFlood flood-opacity="0" result="BackgroundImageFix"/>
<feBlend mode="normal" in="SourceGraphic" in2="BackgroundImageFix" result="shape"/>
<feGaussianBlur stdDeviation="4" result="effect1_foregroundBlur_442_1435"/>
</filter>
<filter id="filter4_f_442_1435" x="16.0322" y="18.3778" width="19.6116" height="18.7158" filterUnits="userSpaceOnUse" color-interpolation-filters="sRGB">
<feFlood flood-opacity="0" result="BackgroundImageFix"/>
<feBlend mode="normal" in="SourceGraphic" in2="BackgroundImageFix" result="shape"/>
<feGaussianBlur stdDeviation="4" result="effect1_foregroundBlur_442_1435"/>
</filter>
<filter id="filter5_di_442_1435" x="17.1872" y="0" width="15.3652" height="33.3593" filterUnits="userSpaceOnUse" color-interpolation-filters="sRGB">
<feFlood flood-opacity="0" result="BackgroundImageFix"/>
<feColorMatrix in="SourceAlpha" type="matrix" values="0 0 0 0 0 0 0 0 0 0 0 0 0 0 0 0 0 0 127 0" result="hardAlpha"/>
<feOffset dy="1"/>
<feGaussianBlur stdDeviation="0.5"/>
<feComposite in2="hardAlpha" operator="out"/>
<feColorMatrix type="matrix" values="0 0 0 0 0 0 0 0 0 0 0 0 0 0 0 0 0 0 0.25 0"/>
<feBlend mode="normal" in2="BackgroundImageFix" result="effect1_dropShadow_442_1435"/>
<feBlend mode="normal" in="SourceGraphic" in2="effect1_dropShadow_442_1435" result="shape"/>
<feColorMatrix in="SourceAlpha" type="matrix" values="0 0 0 0 0 0 0 0 0 0 0 0 0 0 0 0 0 0 127 0" result="hardAlpha"/>
<feOffset dy="20"/>
<feGaussianBlur stdDeviation="35"/>
<feComposite in2="hardAlpha" operator="arithmetic" k2="-1" k3="1"/>
<feColorMatrix type="matrix" values="0 0 0 0 1 0 0 0 0 1 0 0 0 0 1 0 0 0 1 0"/>
<feBlend mode="overlay" in2="shape" result="effect2_innerShadow_442_1435"/>
</filter>
<filter id="filter6_di_442_1435" x="0" y="0.380981" width="34" height="71.504" filterUnits="userSpaceOnUse" color-interpolation-filters="sRGB">
<feFlood flood-opacity="0" result="BackgroundImageFix"/>
<feColorMatrix in="SourceAlpha" type="matrix" values="0 0 0 0 0 0 0 0 0 0 0 0 0 0 0 0 0 0 127 0" result="hardAlpha"/>
<feOffset dy="1"/>
<feGaussianBlur stdDeviation="0.5"/>
<feComposite in2="hardAlpha" operator="out"/>
<feColorMatrix type="matrix" values="0 0 0 0 0 0 0 0 0 0 0 0 0 0 0 0 0 0 0.25 0"/>
<feBlend mode="normal" in2="BackgroundImageFix" result="effect1_dropShadow_442_1435"/>
<feBlend mode="normal" in="SourceGraphic" in2="effect1_dropShadow_442_1435" result="shape"/>
<feColorMatrix in="SourceAlpha" type="matrix" values="0 0 0 0 0 0 0 0 0 0 0 0 0 0 0 0 0 0 127 0" result="hardAlpha"/>
<feOffset dy="48.6468"/>
<feGaussianBlur stdDeviation="30"/>
<feComposite in2="hardAlpha" operator="arithmetic" k2="-1" k3="1"/>
<feColorMatrix type="matrix" values="0 0 0 0 1 0 0 0 0 1 0 0 0 0 1 0 0 0 1 0"/>
<feBlend mode="normal" in2="shape" result="effect2_innerShadow_442_1435"/>
</filter>
<radialGradient id="paint0_radial_442_1435" cx="0" cy="0" r="1" gradientUnits="userSpaceOnUse" gradientTransform="translate(14.6874 32.8744) rotate(-39.7879) scale(3.49184 2.55323)">
<stop stop-color="#3CC7F5"/>
<stop offset="0.0001" stop-color="#3CC7F5"/>
<stop offset="1" stop-color="#004DFF"/>
</radialGradient>
<radialGradient id="paint1_radial_442_1435" cx="0" cy="0" r="1" gradientUnits="userSpaceOnUse" gradientTransform="translate(14.6671 32.8641) rotate(-39.7879) scale(3.49184 2.55323)">
<stop stop-color="#3CC7F5"/>
<stop offset="0.0001" stop-color="#3CC7F5"/>
<stop offset="1" stop-color="#004DFF"/>
</radialGradient>
<radialGradient id="paint2_radial_442_1435" cx="0" cy="0" r="1" gradientUnits="userSpaceOnUse" gradientTransform="translate(15.1855 31.0019) rotate(57.9574) scale(3.02389 0.85722)">
<stop stop-color="white"/>
<stop offset="0.555017" stop-color="#BDDBF1" stop-opacity="0.25"/>
<stop offset="1" stop-color="#5686F5" stop-opacity="0"/>
</radialGradient>
<radialGradient id="paint3_radial_442_1435" cx="0" cy="0" r="1" gradientUnits="userSpaceOnUse" gradientTransform="translate(13.8947 33.39) rotate(51.8214) scale(1.64429 0.787439)">
<stop stop-color="white"/>
<stop offset="0.673987" stop-color="#BDDBF1" stop-opacity="0.25"/>
<stop offset="1" stop-color="#5686F5" stop-opacity="0"/>
</radialGradient>
<radialGradient id="paint4_radial_442_1435" cx="0" cy="0" r="1" gradientUnits="userSpaceOnUse" gradientTransform="translate(18.4389 27.4657) rotate(-37.9113) scale(3.03653 2.18881)">
<stop stop-color="#3CC7F5"/>
<stop offset="0.0001" stop-color="#3CC7F5"/>
<stop offset="1" stop-color="#004DFF"/>
</radialGradient>
<radialGradient id="paint5_radial_442_1435" cx="0" cy="0" r="1" gradientUnits="userSpaceOnUse" gradientTransform="translate(18.4207 27.4571) rotate(-37.9116) scale(3.03654 2.18882)">
<stop stop-color="#3CC7F5"/>
<stop offset="0.0001" stop-color="#3CC7F5"/>
<stop offset="1" stop-color="#004DFF"/>
</radialGradient>
<radialGradient id="paint6_radial_442_1435" cx="0" cy="0" r="1" gradientUnits="userSpaceOnUse" gradientTransform="translate(18.8835 25.9022) rotate(56.2052) scale(2.5753 0.750369)">
<stop stop-color="white"/>
<stop offset="0.555017" stop-color="#BDDBF1" stop-opacity="0.25"/>
<stop offset="1" stop-color="#5686F5" stop-opacity="0"/>
</radialGradient>
<radialGradient id="paint7_radial_442_1435" cx="0" cy="0" r="1" gradientUnits="userSpaceOnUse" gradientTransform="translate(17.731 27.8961) rotate(49.9413) scale(1.41005 0.684554)">
<stop stop-color="white"/>
<stop offset="0.673987" stop-color="#BDDBF1" stop-opacity="0.25"/>
<stop offset="1" stop-color="#5686F5" stop-opacity="0"/>
</radialGradient>
<radialGradient id="paint8_radial_442_1435" cx="0" cy="0" r="1" gradientUnits="userSpaceOnUse" gradientTransform="translate(22.3247 32.8744) rotate(-39.7879) scale(3.49184 2.55323)">
<stop stop-color="#3CC7F5"/>
<stop offset="0.0001" stop-color="#3CC7F5"/>
<stop offset="1" stop-color="#004DFF"/>
</radialGradient>
<radialGradient id="paint9_radial_442_1435" cx="0" cy="0" r="1" gradientUnits="userSpaceOnUse" gradientTransform="translate(22.3044 32.8641) rotate(-39.7879) scale(3.49184 2.55323)">
<stop stop-color="#3CC7F5"/>
<stop offset="0.0001" stop-color="#3CC7F5"/>
<stop offset="1" stop-color="#004DFF"/>
</radialGradient>
<radialGradient id="paint10_radial_442_1435" cx="0" cy="0" r="1" gradientUnits="userSpaceOnUse" gradientTransform="translate(22.8227 31.0019) rotate(57.9574) scale(3.02389 0.85722)">
<stop stop-color="white"/>
<stop offset="0.555017" stop-color="#BDDBF1" stop-opacity="0.25"/>
<stop offset="1" stop-color="#5686F5" stop-opacity="0"/>
</radialGradient>
<radialGradient id="paint11_radial_442_1435" cx="0" cy="0" r="1" gradientUnits="userSpaceOnUse" gradientTransform="translate(21.532 33.39) rotate(51.8214) scale(1.64429 0.787439)">
<stop stop-color="white"/>
<stop offset="0.673987" stop-color="#BDDBF1" stop-opacity="0.25"/>
<stop offset="1" stop-color="#5686F5" stop-opacity="0"/>
</radialGradient>
<radialGradient id="paint12_radial_442_1435" cx="0" cy="0" r="1" gradientUnits="userSpaceOnUse" gradientTransform="translate(10.9545 27.436) rotate(-37.9113) scale(3.03653 2.18881)">
<stop stop-color="#3CC7F5"/>
<stop offset="0.0001" stop-color="#3CC7F5"/>
<stop offset="1" stop-color="#004DFF"/>
</radialGradient>
<radialGradient id="paint13_radial_442_1435" cx="0" cy="0" r="1" gradientUnits="userSpaceOnUse" gradientTransform="translate(10.9363 27.4274) rotate(-37.9116) scale(3.03654 2.18882)">
<stop stop-color="#3CC7F5"/>
<stop offset="0.0001" stop-color="#3CC7F5"/>
<stop offset="1" stop-color="#004DFF"/>
</radialGradient>
<radialGradient id="paint14_radial_442_1435" cx="0" cy="0" r="1" gradientUnits="userSpaceOnUse" gradientTransform="translate(11.3991 25.8727) rotate(56.2052) scale(2.5753 0.750369)">
<stop stop-color="white"/>
<stop offset="0.555017" stop-color="#BDDBF1" stop-opacity="0.25"/>
<stop offset="1" stop-color="#5686F5" stop-opacity="0"/>
</radialGradient>
<radialGradient id="paint15_radial_442_1435" cx="0" cy="0" r="1" gradientUnits="userSpaceOnUse" gradientTransform="translate(10.2467 27.8664) rotate(49.9413) scale(1.41005 0.684554)">
<stop stop-color="white"/>
<stop offset="0.673987" stop-color="#BDDBF1" stop-opacity="0.25"/>
<stop offset="1" stop-color="#5686F5" stop-opacity="0"/>
</radialGradient>
<radialGradient id="paint16_radial_442_1435" cx="0" cy="0" r="1" gradientUnits="userSpaceOnUse" gradientTransform="translate(25.8472 27.4657) rotate(-37.9116) scale(3.03654 2.18882)">
<stop stop-color="#3CC7F5"/>
<stop offset="0.0001" stop-color="#3CC7F5"/>
<stop offset="1" stop-color="#004DFF"/>
</radialGradient>
<radialGradient id="paint17_radial_442_1435" cx="0" cy="0" r="1" gradientUnits="userSpaceOnUse" gradientTransform="translate(25.829 27.4571) rotate(-37.9116) scale(3.03654 2.18882)">
<stop stop-color="#3CC7F5"/>
<stop offset="0.0001" stop-color="#3CC7F5"/>
<stop offset="1" stop-color="#004DFF"/>
</radialGradient>
<radialGradient id="paint18_radial_442_1435" cx="0" cy="0" r="1" gradientUnits="userSpaceOnUse" gradientTransform="translate(26.2918 25.9022) rotate(56.2052) scale(2.5753 0.750369)">
<stop stop-color="white"/>
<stop offset="0.555017" stop-color="#BDDBF1" stop-opacity="0.25"/>
<stop offset="1" stop-color="#5686F5" stop-opacity="0"/>
</radialGradient>
<radialGradient id="paint19_radial_442_1435" cx="0" cy="0" r="1" gradientUnits="userSpaceOnUse" gradientTransform="translate(25.1393 27.8961) rotate(49.9413) scale(1.41005 0.684554)">
<stop stop-color="white"/>
<stop offset="0.673987" stop-color="#BDDBF1" stop-opacity="0.25"/>
<stop offset="1" stop-color="#5686F5" stop-opacity="0"/>
</radialGradient>
<linearGradient id="paint20_linear_442_1435" x1="24.8698" y1="0" x2="24.8698" y2="13.3593" gradientUnits="userSpaceOnUse">
<stop stop-color="#FFBB15"/>
<stop offset="1" stop-color="#FA6C21"/>
</linearGradient>
<linearGradient id="paint21_linear_442_1435" x1="3.24178" y1="0.380981" x2="32.9588" y2="23.3037" gradientUnits="userSpaceOnUse">
<stop stop-color="white"/>
<stop offset="1" stop-color="#C1C1C1"/>
</linearGradient>
</defs>
</svg>
