<svg width="34" height="43" viewBox="0 0 34 43" fill="none" xmlns="http://www.w3.org/2000/svg">
<g style="mix-blend-mode:color-burn" opacity="0.5" filter="url(#filter0_f_442_1482)">
<path fill-rule="evenodd" clip-rule="evenodd" d="M19.0677 33.1825C18.7305 33.8577 18.047 34.3195 17.2587 34.3195C16.1361 34.3195 15.226 33.3828 15.226 32.2274C15.226 32.0617 15.2439 31.8942 15.2781 31.7241C15.1145 32.1263 15.0227 32.5101 15.0227 32.8846C15.0227 34.0401 15.9328 34.9768 17.0554 34.9768C18.0798 34.9768 18.9272 34.1969 19.0677 33.1825Z" fill="url(#paint0_radial_442_1482)" fill-opacity="0.3"/>
</g>
<path opacity="0.5" d="M19.0678 32.8743C19.0678 34.0298 18.1577 34.9665 17.0351 34.9665C15.9125 34.9665 15.0024 34.0298 15.0024 32.8743C15.0024 31.7188 15.8765 30.4754 17.0351 28.8761C18.0108 30.4316 19.0678 31.7188 19.0678 32.8743Z" fill="url(#paint1_radial_442_1482)"/>
<g style="mix-blend-mode:screen" opacity="0.3">
<ellipse cx="17.5535" cy="31.1545" rx="2.08354" ry="2.19078" fill="url(#paint2_radial_442_1482)"/>
</g>
<g style="mix-blend-mode:screen" opacity="0.3">
<ellipse cx="16.3744" cy="33.5425" rx="2.08354" ry="2.19078" fill="url(#paint3_radial_442_1482)"/>
</g>
<g style="mix-blend-mode:color-burn" opacity="0.5" filter="url(#filter1_f_442_1482)">
<path fill-rule="evenodd" clip-rule="evenodd" d="M13.1336 27.566C12.8326 28.1297 12.2223 28.5153 11.5185 28.5153C10.5161 28.5153 9.70354 27.7332 9.70354 26.7684C9.70354 26.63 9.71959 26.4902 9.75014 26.3481C9.60405 26.684 9.52203 27.0044 9.52203 27.3172C9.52203 28.282 10.3346 29.0641 11.337 29.0641C12.2516 29.0641 13.0082 28.4129 13.1336 27.566Z" fill="url(#paint4_radial_442_1482)" fill-opacity="0.3"/>
</g>
<path opacity="0.5" d="M13.1338 27.3085C13.1338 28.2733 12.3212 29.0554 11.3188 29.0554C10.3165 29.0554 9.50391 28.2733 9.50391 27.3085C9.50391 26.3437 10.2843 25.3055 11.3188 23.9702C12.19 25.2689 13.1338 26.3437 13.1338 27.3085Z" fill="url(#paint5_radial_442_1482)"/>
<g style="mix-blend-mode:screen" opacity="0.3">
<ellipse cx="11.7816" cy="25.8727" rx="1.8603" ry="1.8292" fill="url(#paint6_radial_442_1482)"/>
</g>
<g style="mix-blend-mode:screen" opacity="0.3">
<ellipse cx="10.729" cy="27.8664" rx="1.8603" ry="1.8292" fill="url(#paint7_radial_442_1482)"/>
</g>
<g style="mix-blend-mode:color-burn" opacity="0.5" filter="url(#filter2_f_442_1482)">
<path fill-rule="evenodd" clip-rule="evenodd" d="M24.5896 27.5659C24.2885 28.1296 23.6782 28.5152 22.9744 28.5152C21.972 28.5152 21.1595 27.7331 21.1595 26.7683C21.1595 26.63 21.1755 26.4901 21.2061 26.348C21.06 26.6838 20.978 27.0043 20.978 27.3171C20.978 28.2819 21.7905 29.064 22.7929 29.064C23.7075 29.064 24.4641 28.4128 24.5896 27.5659Z" fill="url(#paint8_radial_442_1482)" fill-opacity="0.3"/>
</g>
<path opacity="0.5" d="M24.5896 27.3084C24.5896 28.2732 23.7771 29.0553 22.7747 29.0553C21.7724 29.0553 20.9598 28.2732 20.9598 27.3084C20.9598 26.3436 21.7402 25.3054 22.7747 23.9701C23.6459 25.2688 24.5896 26.3436 24.5896 27.3084Z" fill="url(#paint9_radial_442_1482)"/>
<g style="mix-blend-mode:screen" opacity="0.3">
<ellipse cx="23.2375" cy="25.8725" rx="1.8603" ry="1.8292" fill="url(#paint10_radial_442_1482)"/>
</g>
<g style="mix-blend-mode:screen" opacity="0.3">
<ellipse cx="22.1849" cy="27.8663" rx="1.8603" ry="1.8292" fill="url(#paint11_radial_442_1482)"/>
</g>
<g filter="url(#filter3_di_442_1482)">
<ellipse cx="25.2508" cy="6.67964" rx="6.68258" ry="6.67964" fill="url(#paint12_linear_442_1482)"/>
</g>
<g filter="url(#filter4_di_442_1482)">
<path fill-rule="evenodd" clip-rule="evenodd" d="M23.3508 8.34347C21.8563 3.76559 17.5433 0.457153 12.4558 0.457153C6.12896 0.457153 1 5.5739 1 11.8857C1 18.1975 6.12896 23.3143 12.4558 23.3143L12.4558 23.3144H25.3628C29.5807 23.3144 33 19.9032 33 15.6954C33 11.4875 29.5807 8.07631 25.3628 8.07631C24.6664 8.07631 23.9918 8.16929 23.3508 8.34347Z" fill="url(#paint13_linear_442_1482)"/>
</g>
<defs>
<filter id="filter0_f_442_1482" x="7.02271" y="23.7241" width="20.045" height="19.2527" filterUnits="userSpaceOnUse" color-interpolation-filters="sRGB">
<feFlood flood-opacity="0" result="BackgroundImageFix"/>
<feBlend mode="normal" in="SourceGraphic" in2="BackgroundImageFix" result="shape"/>
<feGaussianBlur stdDeviation="4" result="effect1_foregroundBlur_442_1482"/>
</filter>
<filter id="filter1_f_442_1482" x="1.52203" y="18.3481" width="19.6116" height="18.7159" filterUnits="userSpaceOnUse" color-interpolation-filters="sRGB">
<feFlood flood-opacity="0" result="BackgroundImageFix"/>
<feBlend mode="normal" in="SourceGraphic" in2="BackgroundImageFix" result="shape"/>
<feGaussianBlur stdDeviation="4" result="effect1_foregroundBlur_442_1482"/>
</filter>
<filter id="filter2_f_442_1482" x="12.978" y="18.348" width="19.6116" height="18.7159" filterUnits="userSpaceOnUse" color-interpolation-filters="sRGB">
<feFlood flood-opacity="0" result="BackgroundImageFix"/>
<feBlend mode="normal" in="SourceGraphic" in2="BackgroundImageFix" result="shape"/>
<feGaussianBlur stdDeviation="4" result="effect1_foregroundBlur_442_1482"/>
</filter>
<filter id="filter3_di_442_1482" x="17.5682" y="0" width="15.3652" height="33.3593" filterUnits="userSpaceOnUse" color-interpolation-filters="sRGB">
<feFlood flood-opacity="0" result="BackgroundImageFix"/>
<feColorMatrix in="SourceAlpha" type="matrix" values="0 0 0 0 0 0 0 0 0 0 0 0 0 0 0 0 0 0 127 0" result="hardAlpha"/>
<feOffset dy="1"/>
<feGaussianBlur stdDeviation="0.5"/>
<feComposite in2="hardAlpha" operator="out"/>
<feColorMatrix type="matrix" values="0 0 0 0 0 0 0 0 0 0 0 0 0 0 0 0 0 0 0.25 0"/>
<feBlend mode="normal" in2="BackgroundImageFix" result="effect1_dropShadow_442_1482"/>
<feBlend mode="normal" in="SourceGraphic" in2="effect1_dropShadow_442_1482" result="shape"/>
<feColorMatrix in="SourceAlpha" type="matrix" values="0 0 0 0 0 0 0 0 0 0 0 0 0 0 0 0 0 0 127 0" result="hardAlpha"/>
<feOffset dy="20"/>
<feGaussianBlur stdDeviation="35"/>
<feComposite in2="hardAlpha" operator="arithmetic" k2="-1" k3="1"/>
<feColorMatrix type="matrix" values="0 0 0 0 1 0 0 0 0 1 0 0 0 0 1 0 0 0 1 0"/>
<feBlend mode="overlay" in2="shape" result="effect2_innerShadow_442_1482"/>
</filter>
<filter id="filter4_di_442_1482" x="0" y="0.457153" width="34" height="71.5041" filterUnits="userSpaceOnUse" color-interpolation-filters="sRGB">
<feFlood flood-opacity="0" result="BackgroundImageFix"/>
<feColorMatrix in="SourceAlpha" type="matrix" values="0 0 0 0 0 0 0 0 0 0 0 0 0 0 0 0 0 0 127 0" result="hardAlpha"/>
<feOffset dy="1"/>
<feGaussianBlur stdDeviation="0.5"/>
<feComposite in2="hardAlpha" operator="out"/>
<feColorMatrix type="matrix" values="0 0 0 0 0 0 0 0 0 0 0 0 0 0 0 0 0 0 0.25 0"/>
<feBlend mode="normal" in2="BackgroundImageFix" result="effect1_dropShadow_442_1482"/>
<feBlend mode="normal" in="SourceGraphic" in2="effect1_dropShadow_442_1482" result="shape"/>
<feColorMatrix in="SourceAlpha" type="matrix" values="0 0 0 0 0 0 0 0 0 0 0 0 0 0 0 0 0 0 127 0" result="hardAlpha"/>
<feOffset dy="48.6468"/>
<feGaussianBlur stdDeviation="30"/>
<feComposite in2="hardAlpha" operator="arithmetic" k2="-1" k3="1"/>
<feColorMatrix type="matrix" values="0 0 0 0 1 0 0 0 0 1 0 0 0 0 1 0 0 0 1 0"/>
<feBlend mode="normal" in2="shape" result="effect2_innerShadow_442_1482"/>
</filter>
<radialGradient id="paint0_radial_442_1482" cx="0" cy="0" r="1" gradientUnits="userSpaceOnUse" gradientTransform="translate(17.0554 33.027) rotate(-39.7879) scale(3.49184 2.55323)">
<stop stop-color="#3CC7F5"/>
<stop offset="0.0001" stop-color="#3CC7F5"/>
<stop offset="1" stop-color="#004DFF"/>
</radialGradient>
<radialGradient id="paint1_radial_442_1482" cx="0" cy="0" r="1" gradientUnits="userSpaceOnUse" gradientTransform="translate(17.0351 33.0167) rotate(-39.7879) scale(3.49184 2.55323)">
<stop stop-color="#3CC7F5"/>
<stop offset="0.0001" stop-color="#3CC7F5"/>
<stop offset="1" stop-color="#004DFF"/>
</radialGradient>
<radialGradient id="paint2_radial_442_1482" cx="0" cy="0" r="1" gradientUnits="userSpaceOnUse" gradientTransform="translate(17.5535 31.1545) rotate(57.9574) scale(3.02389 0.85722)">
<stop stop-color="white"/>
<stop offset="0.555017" stop-color="#BDDBF1" stop-opacity="0.25"/>
<stop offset="1" stop-color="#5686F5" stop-opacity="0"/>
</radialGradient>
<radialGradient id="paint3_radial_442_1482" cx="0" cy="0" r="1" gradientUnits="userSpaceOnUse" gradientTransform="translate(16.2626 33.5425) rotate(51.8214) scale(1.64429 0.787439)">
<stop stop-color="white"/>
<stop offset="0.673987" stop-color="#BDDBF1" stop-opacity="0.25"/>
<stop offset="1" stop-color="#5686F5" stop-opacity="0"/>
</radialGradient>
<radialGradient id="paint4_radial_442_1482" cx="0" cy="0" r="1" gradientUnits="userSpaceOnUse" gradientTransform="translate(11.337 27.436) rotate(-37.9116) scale(3.03654 2.18882)">
<stop stop-color="#3CC7F5"/>
<stop offset="0.0001" stop-color="#3CC7F5"/>
<stop offset="1" stop-color="#004DFF"/>
</radialGradient>
<radialGradient id="paint5_radial_442_1482" cx="0" cy="0" r="1" gradientUnits="userSpaceOnUse" gradientTransform="translate(11.3188 27.4274) rotate(-37.9116) scale(3.03654 2.18882)">
<stop stop-color="#3CC7F5"/>
<stop offset="0.0001" stop-color="#3CC7F5"/>
<stop offset="1" stop-color="#004DFF"/>
</radialGradient>
<radialGradient id="paint6_radial_442_1482" cx="0" cy="0" r="1" gradientUnits="userSpaceOnUse" gradientTransform="translate(11.7816 25.8727) rotate(56.2052) scale(2.5753 0.750369)">
<stop stop-color="white"/>
<stop offset="0.555017" stop-color="#BDDBF1" stop-opacity="0.25"/>
<stop offset="1" stop-color="#5686F5" stop-opacity="0"/>
</radialGradient>
<radialGradient id="paint7_radial_442_1482" cx="0" cy="0" r="1" gradientUnits="userSpaceOnUse" gradientTransform="translate(10.6291 27.8664) rotate(49.9413) scale(1.41005 0.684554)">
<stop stop-color="white"/>
<stop offset="0.673987" stop-color="#BDDBF1" stop-opacity="0.25"/>
<stop offset="1" stop-color="#5686F5" stop-opacity="0"/>
</radialGradient>
<radialGradient id="paint8_radial_442_1482" cx="0" cy="0" r="1" gradientUnits="userSpaceOnUse" gradientTransform="translate(22.7929 27.4359) rotate(-37.9119) scale(3.03655 2.18883)">
<stop stop-color="#3CC7F5"/>
<stop offset="0.0001" stop-color="#3CC7F5"/>
<stop offset="1" stop-color="#004DFF"/>
</radialGradient>
<radialGradient id="paint9_radial_442_1482" cx="0" cy="0" r="1" gradientUnits="userSpaceOnUse" gradientTransform="translate(22.7747 27.4273) rotate(-37.9116) scale(3.03654 2.18882)">
<stop stop-color="#3CC7F5"/>
<stop offset="0.0001" stop-color="#3CC7F5"/>
<stop offset="1" stop-color="#004DFF"/>
</radialGradient>
<radialGradient id="paint10_radial_442_1482" cx="0" cy="0" r="1" gradientUnits="userSpaceOnUse" gradientTransform="translate(23.2375 25.8725) rotate(56.2052) scale(2.5753 0.750369)">
<stop stop-color="white"/>
<stop offset="0.555017" stop-color="#BDDBF1" stop-opacity="0.25"/>
<stop offset="1" stop-color="#5686F5" stop-opacity="0"/>
</radialGradient>
<radialGradient id="paint11_radial_442_1482" cx="0" cy="0" r="1" gradientUnits="userSpaceOnUse" gradientTransform="translate(22.0851 27.8663) rotate(49.9413) scale(1.41005 0.684554)">
<stop stop-color="white"/>
<stop offset="0.673987" stop-color="#BDDBF1" stop-opacity="0.25"/>
<stop offset="1" stop-color="#5686F5" stop-opacity="0"/>
</radialGradient>
<linearGradient id="paint12_linear_442_1482" x1="25.2508" y1="0" x2="25.2508" y2="13.3593" gradientUnits="userSpaceOnUse">
<stop stop-color="#FFBB15"/>
<stop offset="1" stop-color="#FA6C21"/>
</linearGradient>
<linearGradient id="paint13_linear_442_1482" x1="3.24178" y1="0.457153" x2="32.9588" y2="23.3799" gradientUnits="userSpaceOnUse">
<stop stop-color="white"/>
<stop offset="1" stop-color="#C1C1C1"/>
</linearGradient>
</defs>
</svg>
